<?xml version="1.0" encoding="utf-8"?>
<!-- Generator: Adobe Illustrator 26.0.1, SVG Export Plug-In . SVG Version: 6.00 Build 0)  -->
<svg version="1.1" id="katman_1" xmlns="http://www.w3.org/2000/svg" xmlns:xlink="http://www.w3.org/1999/xlink" x="0px" y="0px"
	 viewBox="0 0 1080 1080" style="enable-background:new 0 0 1080 1080;" xml:space="preserve">
<style type="text/css">
	.st0{fill:#61F2BE;}
	.st1{fill:#30AA7B;}
	.st2{fill:#64D8AE;}
</style>
<g>
	<g>
		<polygon class="st0" points="540.13,258.7 698.02,337.2 698.02,337.19 698.03,337.2 698.03,337.19 698.03,337.2 862.5,418.16 
			862.5,258.7 540.13,98.18 		"/>
	</g>
	<g>
		<polygon class="st0" points="703.16,660.48 540.13,579.29 540.13,741.01 703.16,822.97 862.5,900.33 862.5,740.92 703.16,660.5 		
			"/>
	</g>
	<g>
		<polygon class="st1" points="697.92,337 697.92,336.99 697.91,336.99 697.91,336.99 697.91,336.99 540.13,258.7 380.85,339.74 
			539.09,418.37 539.09,418.38 699.69,499.91 862.6,417.51 		"/>
	</g>
	<g>
		<polygon class="st2" points="380.96,497.18 380.96,497.8 380.96,656.67 540.13,579.29 540.13,579.16 540.13,418.9 380.96,339.1 
			380.96,495.52 		"/>
	</g>
	<g>
		<polygon class="st1" points="703.16,822.97 540.13,741.01 540.13,741.01 434.13,793.45 379.09,820.67 379.04,820.7 378.92,820.76 
			378.99,820.72 266.15,876.51 218,900.33 266.15,924.37 380.96,981.72 380.79,967.11 380.97,981.72 473.17,936.11 538.52,903.78 
			538.52,903.89 540.25,903.04 699.37,981.72 862.5,900.33 		"/>
	</g>
</g>
</svg>
