<svg width="0" height="0" class="hidden">
  <symbol fill="none" xmlns="http://www.w3.org/2000/svg" viewBox="0 0 136 32" id="logo">
    <path fill-rule="evenodd" clip-rule="evenodd"
          d="M42.112 1.038A76.94 76.94 0 0 0 45.525 0l2.02 13.078-4.15 1.102-3.83-7.01a74.035 74.035 0 0 1-3.093.543L35.286 15.6l-4.279.367-2.548-7.553c-1.041.032-2.099.032-3.14 0l-2.548 7.553-4.279-.367-1.186-7.872a65.812 65.812 0 0 1-3.092-.543l-3.83 6.994-4.15-1.118L8.283 0a58.739 58.739 0 0 0 33.828 1.038ZM33.363 23.01l3.83-7.01 4.166 1.118-2.05 13.062a49.543 49.543 0 0 0-3.414-1.038 58.605 58.605 0 0 0-33.828 1.022L.017 17.118 4.166 16l3.83 6.994a65.825 65.825 0 0 1 3.092-.543l1.186-7.872 4.278-.367 2.548 7.553a51.39 51.39 0 0 1 3.141 0l2.548-7.553 4.295.367 1.185 7.888c1.042.16 2.067.335 3.093.543ZM69.354 8.144s-1.859-2.427-5.8-2.427c-3.959 0-9.135 2.251-9.135 9.373s5.176 9.437 9.134 9.437c3.959 0 5.224-2.028 5.801-3.018 0 4.328-3.99 6.435-9.021 3.944l-2.26 4.87c6.49 3.274 16.073 2.523 16.073-8.782V6.164h-4.119l-.673 1.98Zm-4.791 11.29c-1.602 0-4.022-1.103-4.022-4.344 0-3.242 2.42-4.343 4.022-4.343 1.602 0 4.022 1.101 4.022 4.343 0 3.241-2.42 4.343-4.022 4.343Zm61.886-13.27.994 2.922s2.532-5.286 8.573-2.619l-2.372 5.094c-2.868-1.102-5.592.367-5.592 3.497v9.022h-5.721V6.164h4.118Zm-8.348 0h-4.119l-.689 1.98s-1.859-2.427-5.801-2.427c-3.958 0-9.134 2.634-9.134 9.373 0 6.675 5.176 9.437 9.134 9.437 4.631 0 5.801-3.018 5.801-3.018v2.587h4.808V6.164Zm-9.599 13.27c-1.603 0-4.022-1.103-4.022-4.344 0-3.242 2.419-4.343 4.022-4.343 1.602 0 4.022 1.101 4.022 4.343 0 3.241-2.42 4.343-4.022 4.343ZM76.405 14.93c0-4.646 3.637-9.613 10.672-9.613s9.615 6.228 9.23 11.322h-13.54c.72 2.14 2.852 3.37 4.743 3.37 2.323 0 4.134-1.39 4.871-2.572l3.782 2.46c-.369.718-2.708 5.205-9.599 5.205-6.89 0-10.16-5.525-10.16-10.172Zm10.512-4.583c-1.81 0-3.173.959-3.878 2.412h7.387s-.865-2.412-3.51-2.412Z"
          fill="currentColor"/>
  </symbol>
</svg>
