<svg width="238" height="60" viewBox="0 0 238 60" fill="none" xmlns="http://www.w3.org/2000/svg">
<path d="M41.3067 24.0012V12.0006V0L30.9793 6.00029L20.6519 12.0006L30.9793 18.0009L41.3067 24.0012Z" fill="#3A5FA9"/>
<path d="M41.3076 24.0012L51.635 18.0009L61.9625 12.0006L51.635 6.00029L41.3076 0V12.0006V24.0012Z" fill="#4575BA"/>
<path d="M51.635 18.0008L41.3076 24.0011L51.635 29.9985L61.9625 35.9987V24.0011V12.0005L51.635 18.0008Z" fill="#3D8BCA"/>
<path d="M20.6519 35.9988V47.9994V60L30.9793 53.9997L41.3067 47.9994L30.9793 41.9991L20.6519 35.9988Z" fill="#3A5FA9"/>
<path d="M20.652 35.9988L10.3274 41.9991L0 47.9994L10.3274 53.9997L20.652 60V47.9994V35.9988Z" fill="#4575BA"/>
<path d="M20.652 35.9987L10.3274 29.9984L0 24.001V35.9987V47.9992L10.3274 41.9989L20.652 35.9987Z" fill="#3D8BCA"/>
<path d="M20.652 12.0006L10.3274 6.00029L0 0V12.0006V24.0012L10.3274 18.0009L20.652 12.0006Z" fill="#84CFEF"/>
<path d="M20.652 35.9987V24.0011V12.0005L10.3274 18.0008L0 24.0011L10.3274 29.9985L20.652 35.9987Z" fill="#56BAE9"/>
<path d="M41.3076 47.9994L51.635 53.9997L61.9625 60V47.9994V35.9988L51.635 41.9991L41.3076 47.9994Z" fill="#84CFEF"/>
<path d="M41.3076 24.001V35.9987V47.9992L51.635 41.9989L61.9625 35.9987L51.635 29.9984L41.3076 24.001Z" fill="#56BAE9"/>
<path d="M100.427 42.0494H85.2295V18.3979H90.1486V37.952H100.427V42.0494Z" fill="#04042E"/>
<path d="M112.936 42.0494V33.2134L104.76 18.396H110.117L115.379 28.4926H115.492L120.77 18.396H126.047L117.855 33.2134V42.0494H112.936Z" fill="#04042E"/>
<path d="M140.724 42.0496V22.478H133.933V18.3982H152.452V22.4799H145.644V42.0516H140.724V42.0496Z" fill="#04042E"/>
<path d="M178.279 42.0496H162.708V18.3982H178.279V22.4799H167.627V28.185H177.675V31.9864H167.627V37.9542H178.279V42.0496Z" fill="#04042E"/>
<path d="M194.287 42.0496H189.368V18.3982H198.994C204.402 18.3982 207.496 21.2664 207.496 25.9383C207.496 28.9712 205.932 31.5923 203.228 32.6589L208.18 42.0516H202.608L198.227 33.398H194.285V42.0496H194.287ZM194.287 29.8063H198.523C200.999 29.8063 202.448 28.381 202.448 26.0363C202.448 23.7425 200.917 22.2663 198.474 22.2663H194.287V29.8063Z" fill="#04042E"/>
<path d="M230.981 36.3132H222.722L220.93 42.0496H215.88L224.041 18.3982H229.823L238 42.0496H232.771L230.981 36.3132ZM223.782 32.6079H229.923L226.909 22.9211H226.794L223.782 32.6079Z" fill="#04042E"/>
</svg>