<svg xmlns="http://www.w3.org/2000/svg" viewBox="0 0 458.68 56.67"><defs><style>.cls-1{fill:#8fa63c;}.cls-2{fill:#58595b;}</style></defs><g id="Layer_2" data-name="Layer 2"><g id="katman_1" data-name="katman 1"><path class="cls-1" d="M38.63,22.05a6.62,6.62,0,0,1-2.37,2.52,9.15,9.15,0,0,1-3.41,1.2,25.25,25.25,0,0,1-4,.31H19.34V9.47h9.47a26.46,26.46,0,0,1,4,.31A9.52,9.52,0,0,1,36.26,11a6.65,6.65,0,0,1,2.37,2.53,8.82,8.82,0,0,1,.89,4.27,8.82,8.82,0,0,1-.89,4.27M50.27,11.18a15.51,15.51,0,0,0-3.33-5.67,16.69,16.69,0,0,0-5.94-4A23.12,23.12,0,0,0,32.15,0H0V9.47H7.15V26.08H0v9.48H7.15V55.43H19.34V35.56H32.15A23.12,23.12,0,0,0,41,34a16.58,16.58,0,0,0,5.94-4,15.31,15.31,0,0,0,3.33-5.7,21.14,21.14,0,0,0,0-13.16"/><path class="cls-1" d="M81.52,34l-7-20.34h-.15L67.16,34Zm-.7-34,20.73,55.43H88.9L84.7,43.08H64L59.63,55.43H47.36L68.32,0Z"/><rect class="cls-1" x="159.3" y="16.99" width="12.19" height="38.44"/><rect class="cls-1" x="159.3" y="0.09" width="12.19" height="11.45"/><path class="cls-1" d="M207.43,46a16.45,16.45,0,0,0,3.42-.35,8.28,8.28,0,0,0,2.87-1.16,5.92,5.92,0,0,0,2-2.22,7.63,7.63,0,0,0,.74-3.57c0-2.85-.8-4.87-2.41-6.09a10.22,10.22,0,0,0-6.36-1.83H194.39V46Zm-.69-23.52a8.77,8.77,0,0,0,5.35-1.55q2.1-1.56,2.1-5.05a6.48,6.48,0,0,0-.7-3.18,5.29,5.29,0,0,0-1.86-1.95,8.21,8.21,0,0,0-2.68-1,17.93,17.93,0,0,0-3.15-.27H194.39v13ZM208.29,0a34.21,34.21,0,0,1,7.22.7A15.59,15.59,0,0,1,221.1,3a10.71,10.71,0,0,1,3.61,4.23A14.94,14.94,0,0,1,226,13.74a12.19,12.19,0,0,1-1.9,7,13.88,13.88,0,0,1-5.63,4.58,13.29,13.29,0,0,1,7.64,5.16,15.31,15.31,0,0,1,2.53,8.89A15.37,15.37,0,0,1,227,46.62a14.14,14.14,0,0,1-4.39,5,19.16,19.16,0,0,1-6.29,2.88,28.32,28.32,0,0,1-7.25.93H182.21V0Z"/><path class="cls-1" d="M275.89,51.2q-6.3,5.47-17.39,5.47-11.26,0-17.43-5.43T234.9,34.47V0h12.19V34.47a25.85,25.85,0,0,0,.38,4.42,9.07,9.07,0,0,0,1.63,3.84,8.94,8.94,0,0,0,3.46,2.72,14,14,0,0,0,5.94,1c4.34,0,7.35-1,9-2.91s2.49-5,2.49-9.12V0h12.18V34.47q0,11.25-6.28,16.73"/><path class="cls-1" d="M138.39,17.78a8.94,8.94,0,0,1-.89,4.27,6.62,6.62,0,0,1-2.37,2.52,9.2,9.2,0,0,1-3.42,1.2,25.12,25.12,0,0,1-4,.31h-9.47V9.47h9.47a26.33,26.33,0,0,1,4,.31,9.57,9.57,0,0,1,3.42,1.2,6.65,6.65,0,0,1,2.37,2.53,8.94,8.94,0,0,1,.89,4.27m-8.25,17.78h0l1,2.44Zm19-11.22a21.14,21.14,0,0,0,0-13.16,15.39,15.39,0,0,0-3.34-5.67,16.66,16.66,0,0,0-5.94-4A23.23,23.23,0,0,0,131,0H106.36V9.47h0V26.08h0v9.48h0V55.43h11.84V35.56h11.57l4.6,9.83,4.19,10h12.66l-10.11-22A15.76,15.76,0,0,0,145.8,30a15.2,15.2,0,0,0,3.34-5.7"/><path class="cls-2" d="M423.05,47.88V31.18h17.44c5.37,0,9.09,3.23,9.09,8.27s-3.39,8.43-9.34,8.43Zm0-40.17h16.61c5.13,0,8.76,3.14,8.76,7.85,0,5.13-3.55,8.52-8.84,8.52H423.05ZM448.26,27c4.05-.66,8.76-4.88,8.76-11.91,0-8.92-6.28-15-16.45-15H414.2V55.49h26.95c11.74,0,17.53-6.28,17.53-15.21,0-7.77-5.05-12.4-10.42-13ZM403.37.1h-8.84V31c0,10.33-5.87,17.11-14.55,17.11-9.1,0-15.05-6.78-15.05-17.11V.1h-8.85V31c0,15.29,9.51,25.63,23.9,25.63,14,0,23.39-10.34,23.39-25.63ZM345.26.1h-8.85V23.58H306.48V.1h-8.84V55.49h8.84V31.68h29.93V55.49h8.85Z"/></g></g></svg>