<?xml version="1.0" encoding="utf-8"?>
<!-- Generator: Adobe Illustrator 27.0.1, SVG Export Plug-In . SVG Version: 6.00 Build 0)  -->
<svg version="1.1" id="Layer_1" xmlns="http://www.w3.org/2000/svg" xmlns:xlink="http://www.w3.org/1999/xlink" x="0px" y="0px"
	 viewBox="0 0 150 150" style="enable-background:new 0 0 150 150;" xml:space="preserve">
<style type="text/css">
	.st0{fill:#5915E8;}
	.st1{fill-rule:evenodd;clip-rule:evenodd;fill:#FFFFFF;}
	.st2{fill:#FFFFFF;}
</style>
<circle class="st0" cx="75" cy="75" r="75"/>
<g>
	<path class="st1" d="M76.5,57.8L84,35.4c0.9-2.9,4-4.6,6.9-3.8c3,0.8,4.8,3.8,4.1,6.7l-5.2,23.1c17.9,6,30.2,14.6,28.6,20.6
		c-1.8,6.8-21,7.6-42.9,1.7S37.4,67.7,39.3,60.9c0.2-0.6,0.5-1.2,1-1.8c2.2-3,11-9.5,31-8.3c-4.1,0.1-8.8,2-12,4.5
		C64.4,55.6,70.3,56.4,76.5,57.8z M76.8,67.2l10.3-30.7l0,0c0.4-1.1,1.4-1.8,2.6-1.7l-9.1,33.9C79,68.3,77.7,67.7,76.8,67.2z"/>
	<path class="st2" d="M35.1,82.4c41.2,17.5,73.5,12.4,83.1,4.2c-1.2,2.5-2.8,5.4-4.2,7.8c-1.7,3.1-4.5,5.5-7.7,6.9
		c-1.1,0.5-2.3,1-3.6,1.6c-9.1,3.4-19.8,4.8-31.8,3.3c0,0,5.6,2.7,15.7,3.7c-6.5,2.9-13.2,5.9-18.4,8.3c-0.7,0.3-1.4,0.4-2.2,0.2
		s-1.4-0.6-1.8-1.2c-5.1-7.2-12.5-17.1-18.4-24.9c-5.5-3.4-10.9-7.5-14.4-11.5C32.6,81.3,33.8,81.8,35.1,82.4z"/>
</g>
</svg>
