<svg xmlns="http://www.w3.org/2000/svg" xmlns:xlink="http://www.w3.org/1999/xlink" viewBox="0 0 296 512.15"><defs><style>.cls-1{fill:url(#linear-gradient);}.cls-10,.cls-12,.cls-2,.cls-5{fill-opacity:0.37;}.cls-2{fill:url(#linear-gradient-2);}.cls-13,.cls-15,.cls-16,.cls-18,.cls-19,.cls-21,.cls-3,.cls-6,.cls-8{fill-opacity:0.2;}.cls-4{fill:url(#linear-gradient-3);}.cls-5{fill:url(#linear-gradient-4);}.cls-22,.cls-6{fill:#fff;}.cls-7{fill:url(#linear-gradient-5);}.cls-8{fill:url(#linear-gradient-6);}.cls-9{fill:url(#linear-gradient-7);}.cls-10{fill:url(#linear-gradient-8);}.cls-11{fill:url(#linear-gradient-9);}.cls-12{fill:url(#linear-gradient-10);}.cls-13{fill:#8d8d8d;}.cls-14{fill:url(#linear-gradient-11);}.cls-15{fill:url(#linear-gradient-12);}.cls-16{fill:#707070;}.cls-17{fill:url(#linear-gradient-13);}.cls-18{fill:url(#linear-gradient-14);}.cls-19{fill:#9c9c9c;}.cls-20{fill:url(#linear-gradient-15);}.cls-21{fill:url(#linear-gradient-16);}</style><linearGradient id="linear-gradient" x1="72.21" y1="205.13" x2="179.05" y2="660.99" gradientTransform="matrix(1, 0, 0, -1, 0, 514.15)" gradientUnits="userSpaceOnUse"><stop offset="0" stop-color="#04e104"/><stop offset="0.34" stop-color="lime"/><stop offset="0.53" stop-color="#00fffe"/></linearGradient><linearGradient id="linear-gradient-2" x1="68.41" y1="217.75" x2="185.84" y2="601.21" gradientTransform="matrix(1, 0, 0, -1, 0, 514.15)" gradientUnits="userSpaceOnUse"><stop offset="0" stop-opacity="0"/><stop offset="1" stop-opacity="0.47"/></linearGradient><linearGradient id="linear-gradient-3" x1="37.23" y1="213.63" x2="225.7" y2="657.96" gradientTransform="matrix(1, 0, 0, -1, 0, 514.15)" gradientUnits="userSpaceOnUse"><stop offset="0" stop-color="lime"/><stop offset="0.34" stop-color="lime"/><stop offset="0.53" stop-color="#00fffe"/></linearGradient><linearGradient id="linear-gradient-4" x1="55.19" y1="220.79" x2="172.11" y2="604.59" xlink:href="#linear-gradient-2"/><linearGradient id="linear-gradient-5" x1="123.53" y1="281.95" x2="0.76" y2="176.36" gradientTransform="matrix(1, 0, 0, -1, 0, 514.15)" gradientUnits="userSpaceOnUse"><stop offset="0" stop-color="#ffe605"/><stop offset="1" stop-color="#ff0"/></linearGradient><linearGradient id="linear-gradient-6" x1="135.14" y1="311.61" x2="45.96" y2="193.29" gradientTransform="matrix(1, 0, 0, -1, 0, 514.15)" gradientUnits="userSpaceOnUse"><stop offset="0" stop-color="#9b9b9b"/><stop offset="1" stop-color="#b9b9b9" stop-opacity="0"/></linearGradient><linearGradient id="linear-gradient-7" x1="253.61" y1="336.37" x2="137.17" y2="-43.98" gradientTransform="matrix(1, 0, 0, -1, 0, 514.15)" gradientUnits="userSpaceOnUse"><stop offset="0" stop-color="#04e104"/><stop offset="0.52" stop-color="lime"/><stop offset="0.8" stop-color="#00fffe"/></linearGradient><linearGradient id="linear-gradient-8" x1="159.05" y1="26.81" x2="275.98" y2="410.6" xlink:href="#linear-gradient-2"/><linearGradient id="linear-gradient-9" x1="249.41" y1="324.6" x2="95.75" y2="-34.33" gradientTransform="matrix(1, 0, 0, -1, 0, 514.15)" gradientUnits="userSpaceOnUse"><stop offset="0" stop-color="lime"/><stop offset="0.52" stop-color="lime"/><stop offset="0.8" stop-color="#00fffe"/></linearGradient><linearGradient id="linear-gradient-10" x1="145.53" y1="30.08" x2="262.97" y2="413.53" xlink:href="#linear-gradient-2"/><linearGradient id="linear-gradient-11" x1="234.58" y1="317.87" x2="111.81" y2="212.28" xlink:href="#linear-gradient-5"/><linearGradient id="linear-gradient-12" x1="248.67" y1="342.66" x2="159.49" y2="224.34" xlink:href="#linear-gradient-6"/><linearGradient id="linear-gradient-13" x1="88.8" y1="301.9" x2="88.8" y2="186.85" gradientTransform="matrix(1, 0, 0, -1, 0, 514.15)" gradientUnits="userSpaceOnUse"><stop offset="0" stop-color="#ff0"/><stop offset="1" stop-color="#ffe605"/></linearGradient><linearGradient id="linear-gradient-14" x1="125.53" y1="282.69" x2="68.52" y2="201" gradientTransform="matrix(1, 0, 0, -1, 0, 514.15)" gradientUnits="userSpaceOnUse"><stop offset="0" stop-color="#818181"/><stop offset="1" stop-opacity="0"/></linearGradient><linearGradient id="linear-gradient-15" x1="207.21" y1="329.28" x2="207.21" y2="214.13" xlink:href="#linear-gradient-13"/><linearGradient id="linear-gradient-16" x1="239.8" y1="312.94" x2="182.73" y2="231.23" xlink:href="#linear-gradient-14"/></defs><g id="Layer_2" data-name="Layer 2"><g id="Layer_1-2" data-name="Layer 1"><path class="cls-1" d="M197.34,37.48a284.92,284.92,0,0,1-25.38,118v.14A98.5,98.5,0,0,1,162.8,174,101.92,101.92,0,0,1,146,194.14,97.64,97.64,0,0,1,115.1,213.6l-2.82,1.11a197.79,197.79,0,0,0-103,92.07h0q-3.1,5.94-5.85,12.14c0-117.75,183-122.55,191.5-318.77a287.68,287.68,0,0,1,2.4,37.33Z"/><path class="cls-2" d="M197.34,37.48a284.92,284.92,0,0,1-25.38,118v.14A98.5,98.5,0,0,1,162.8,174,101.92,101.92,0,0,1,146,194.14,97.64,97.64,0,0,1,115.1,213.6l-2.82,1.11a197.79,197.79,0,0,0-103,92.07h0q-3.1,5.94-5.85,12.14c0-117.75,183-122.55,191.5-318.77a287.68,287.68,0,0,1,2.4,37.33Z"/><path class="cls-3" d="M197.34,37.48a284.92,284.92,0,0,1-25.38,118v.14A98.5,98.5,0,0,1,162.8,174,101.92,101.92,0,0,1,146,194.14,97.64,97.64,0,0,1,115.1,213.6l-2.82,1.11a197.79,197.79,0,0,0-103,92.07h0q-3.1,5.94-5.85,12.14c0-117.75,183-122.55,191.5-318.77a287.68,287.68,0,0,1,2.4,37.33Z"/><path class="cls-4" d="M194.93.2C186.39,196.37,3.43,201.18,3.43,319c-.82-3.07-1.5-6.2-2-9.37A99.38,99.38,0,0,1,0,293c0-32,16-59.47,38.68-79.85a.08.08,0,0,0,.08-.08c47.28-44.45,85.09-95.76,119-153.43C169.54,39.49,183.09,20.38,194.93.2Z"/><path class="cls-5" d="M194.93.2C186.39,196.37,3.43,201.18,3.43,319c-.82-3.07-1.5-6.2-2-9.37A99.38,99.38,0,0,1,0,293c0-32,16-59.47,38.68-79.85a.08.08,0,0,0,.08-.08c47.28-44.45,85.09-95.76,119-153.43C169.54,39.49,183.09,20.38,194.93.2Z"/><path class="cls-6" d="M194.93.2C186.39,196.37,3.43,201.18,3.43,319c-.82-3.07-1.5-6.2-2-9.37A99.38,99.38,0,0,1,0,293c0-32,16-59.47,38.68-79.85a.08.08,0,0,0,.08-.08c47.28-44.45,85.09-95.76,119-153.43C169.54,39.49,183.09,20.38,194.93.2Z"/><path class="cls-7" d="M154.89,212.25c-23,55.08-92.81,66-132.14,115.15a103.64,103.64,0,0,1,8.46-24.28,111.16,111.16,0,0,1,51.3-50.78q5.1-2.07,10.14-4.34a349.91,349.91,0,0,0,49-26.68Q148.39,216.94,154.89,212.25Z"/><path class="cls-8" d="M154.89,212.25c-23,55.08-92.81,66-132.14,115.15a103.64,103.64,0,0,1,8.46-24.28,111.16,111.16,0,0,1,51.3-50.78q5.1-2.07,10.14-4.34a349.91,349.91,0,0,0,49-26.68Q148.39,216.94,154.89,212.25Z"/><path class="cls-6" d="M154.89,212.25c-23,55.08-92.81,66-132.14,115.15a103.64,103.64,0,0,1,8.46-24.28,111.16,111.16,0,0,1,51.3-50.78q5.1-2.07,10.14-4.34a349.91,349.91,0,0,0,49-26.68Q148.39,216.94,154.89,212.25Z"/><path class="cls-9" d="M296,219.35c0,32-16,59.47-38.68,79.84l-.08.09C210,343.68,172.16,395,138.31,452.66c-11.82,20.15-25.38,39.32-37.21,59.45,8.46-196.18,191.5-201,191.5-318.77.82,3.06,1.5,6.19,2,9.36A98.8,98.8,0,0,1,296,219.35Z"/><path class="cls-10" d="M296,219.35c0,32-16,59.47-38.68,79.84l-.08.09C210,343.68,172.16,395,138.31,452.66c-11.82,20.15-25.38,39.32-37.21,59.45,8.46-196.18,191.5-201,191.5-318.77.82,3.06,1.5,6.19,2,9.36A98.8,98.8,0,0,1,296,219.35Z"/><path class="cls-6" d="M296,219.35c0,32-16,59.47-38.68,79.84l-.08.09C210,343.68,172.16,395,138.31,452.66c-11.82,20.15-25.38,39.32-37.21,59.45,8.46-196.18,191.5-201,191.5-318.77.82,3.06,1.5,6.19,2,9.36A98.8,98.8,0,0,1,296,219.35Z"/><path class="cls-11" d="M292.6,193.38c0,117.75-183,122.55-191.5,318.77a288.68,288.68,0,0,1,23-155.28v-.14a98.5,98.5,0,0,1,9.16-18.38,101.58,101.58,0,0,1,16.82-20.11A97.84,97.84,0,0,1,181,298.77l2.82-1.11A197.8,197.8,0,0,0,286.62,205.6h0Q289.88,199.57,292.6,193.38Z"/><path class="cls-12" d="M292.6,193.38c0,117.75-183,122.55-191.5,318.77a288.68,288.68,0,0,1,23-155.28v-.14a98.5,98.5,0,0,1,9.16-18.38,101.58,101.58,0,0,1,16.82-20.11A97.84,97.84,0,0,1,181,298.77l2.82-1.11A197.8,197.8,0,0,0,286.62,205.6h0Q289.88,199.57,292.6,193.38Z"/><path class="cls-13" d="M292.6,193.38c0,117.75-183,122.55-191.5,318.77a288.68,288.68,0,0,1,23-155.28v-.14a98.5,98.5,0,0,1,9.16-18.38,101.58,101.58,0,0,1,16.82-20.11A97.84,97.84,0,0,1,181,298.77l2.82-1.11A197.8,197.8,0,0,0,286.62,205.6h0Q289.88,199.57,292.6,193.38Z"/><path class="cls-14" d="M273.29,184.87C234,234.1,164.14,245,141.14,300q4.23-14.72,9.73-28.9,2.37-6.15,5-12.19c3.86-9,12.69-26.3,12.69-26.3,12.22-21.78,34.91-30.25,59.22-31.2h3.11A70.38,70.38,0,0,0,273.29,184.87Z"/><path class="cls-15" d="M273.29,184.87C234,234.1,164.14,245,141.14,300q4.23-14.72,9.73-28.9,2.37-6.15,5-12.19c3.86-9,12.69-26.3,12.69-26.3,12.22-21.78,34.91-30.25,59.22-31.2h3.11A70.38,70.38,0,0,0,273.29,184.87Z"/><path class="cls-16" d="M273.29,184.87C234,234.1,164.14,245,141.14,300q4.23-14.72,9.73-28.9,2.37-6.15,5-12.19c3.86-9,12.69-26.3,12.69-26.3,12.22-21.78,34.91-30.25,59.22-31.2h3.11A70.38,70.38,0,0,0,273.29,184.87Z"/><path class="cls-17" d="M154.89,212.25q-4.23,14.72-9.73,28.9-2.37,6.15-5,12.19c-3.86,9-12.69,26.3-12.69,26.3-12.22,21.78-34.91,30.25-59.22,31.21H65.16A70.3,70.3,0,0,0,22.72,327.3C62.07,278.2,131.89,267.33,154.89,212.25Z"/><path class="cls-18" d="M154.89,212.25q-4.23,14.72-9.73,28.9-2.37,6.15-5,12.19c-3.86,9-12.69,26.3-12.69,26.3-12.22,21.78-34.91,30.25-59.22,31.21H65.16A70.3,70.3,0,0,0,22.72,327.3C62.07,278.2,131.89,267.33,154.89,212.25Z"/><path class="cls-19" d="M154.89,212.25q-4.23,14.72-9.73,28.9-2.37,6.15-5,12.19c-3.86,9-12.69,26.3-12.69,26.3-12.22,21.78-34.91,30.25-59.22,31.21H65.16A70.3,70.3,0,0,0,22.72,327.3C62.07,278.2,131.89,267.33,154.89,212.25Z"/><path class="cls-20" d="M273.29,184.87a104.39,104.39,0,0,1-8.46,24.28A111.24,111.24,0,0,1,213.46,260q-5.09,2.09-10.14,4.34a350.47,350.47,0,0,0-49,26.68q-6.71,4.36-13.21,9C164.14,245,234,234.1,273.29,184.87Z"/><path class="cls-21" d="M273.29,184.87a104.39,104.39,0,0,1-8.46,24.28A111.24,111.24,0,0,1,213.46,260q-5.09,2.09-10.14,4.34a350.47,350.47,0,0,0-49,26.68q-6.71,4.36-13.21,9C164.14,245,234,234.1,273.29,184.87Z"/><path class="cls-6" d="M273.29,184.87a104.39,104.39,0,0,1-8.46,24.28A111.24,111.24,0,0,1,213.46,260q-5.09,2.09-10.14,4.34a350.47,350.47,0,0,0-49,26.68q-6.71,4.36-13.21,9C164.14,245,234,234.1,273.29,184.87Z"/><path class="cls-22" d="M101.16,511.39c3.77-92,45.24-146.55,114.6-202.45,24.32-20.69,50.42-41.23,65.54-69.93a100.4,100.4,0,0,0,11.28-46.35,100.25,100.25,0,0,1-11,46.47c-15.08,28.79-41.18,49.43-65.47,70.21-69.63,56.47-110.49,109.68-115,202.08Z"/><path class="cls-22" d="M22.8,326.7c18.36-23.55,44.66-38.83,69.74-54.27,25-15.2,50.67-33.09,62.41-60.88a91.38,91.38,0,0,1-10.9,19.28c-13.33,18-32.43,30.5-51.12,42.23C67.88,288.51,41.65,303.6,22.8,326.73Z"/><path class="cls-22" d="M273.34,184.15C255,207.7,228.6,222.91,203.59,238.46c-24.94,15.23-50.76,33-62.39,60.87A89.62,89.62,0,0,1,152,280c13.37-17.93,32.43-30.47,51.15-42.12,25.13-15.45,51.33-30.53,70.15-53.68Z"/><path class="cls-22" d="M194.92,0c-3.78,92-45.25,146.54-114.66,202.47-24.32,20.68-50.42,41.23-65.54,70A100.09,100.09,0,0,0,3.44,318.77a100.13,100.13,0,0,1,11-46.47C29.55,243.51,55.65,222.87,80,202.09,149.49,145.61,190.38,92.39,194.92,0Z"/></g></g></svg>